<?xml version="1.0" encoding="UTF-8"?>
<svg viewBox="0 0 744.09 1052.4" xmlns="http://www.w3.org/2000/svg">
 <path d="m389.42 191.89c20.732 1.6266 38.691-13.296 40.37-33.31 1.606-20.015-13.797-37.412-34.53-39.11-20.514-1.4852-38.618 13.437-40.151 33.452-1.752 19.873 13.651 37.412 34.311 38.968"/>
 <path d="m367.8 204.87c7.3062-4.3638 16.204-7.2525 26.114-6.515 12.732 0.86046 23.149 7.5598 29.514 15.734l37.472 63.121 51.144 29.932c4.3404 2.8273 7.0893 7.4369 6.5106 12.477-0.72345 7.8057-8.7531 13.645-17.94 12.968-2.8212-0.12296-5.136-1.1063-7.6679-2.0898l-55.774-32.636c-1.7362-1.1678-3.1106-2.6428-4.268-4.1794l-13.962-23.663-16.855 62.937 65.901 66.133c1.5192 2.0283 2.5319 4.4253 3.1107 6.8223l17.796 79.839c-0.14471 1.7824 0.14465 2.8887 0 4.3023-1.0128 11.924-13.166 20.528-26.983 19.668-11.502-0.79904-19.966-7.9901-22.642-16.902l-16.783-74.799-53.604-49.784-12.37 48.494c-0.43399 2.2741-3.9786 7.0681-4.9914 8.9734l-51.433 73.631c-5.0638 6.6993-13.672 11.002-23.438 10.326-13.962-0.86047-24.306-11.186-23.149-22.987 0.28935-3.319 1.9532-6.8223 3.4-9.2193l47.744-68.038 39.859-149.97-26.042 17.885-13.817 53.41c-1.8809 6.8837-9.1871 12.477-17.796 11.924-9.3318-0.61466-16.132-7.4369-15.408-15.366 0-0.61459 0.14465-1.2292 0.28934-1.9668l16.349-62.261c1.0128-2.6429 2.6766-5.0399 5.1361-6.8838l74.582-51.321z"/>
</svg>
